#N canvas 813 345 319 147 10;
#X obj 5 5 tgl 15 0 \$0/learn \$1/pd-midi-gui/learn learn 17 7 0 10
-191407 -1 -1 0 1;
#X obj 59 5 tgl 15 0 \$0/value \$1/r empty 17 7 0 10 -258113 -1 -1
0 127;
#X obj 8 35 u_midi_learn \$1 toggle \$0;
#X text 95 4 args: name;
#X obj 8 101 s \$1/r;
#X obj 8 57 > 0;
#X obj 81 66 r \$0/value;
#X obj 8 79 sel 1;
#X obj 93 101 ctlout;
#X connect 2 0 5 0;
#X connect 2 1 8 1;
#X connect 2 2 8 2;
#X connect 5 0 7 0;
#X connect 6 0 8 0;
#X connect 7 0 4 0;
#X coords 0 -1 1 1 80 25 2 0 0;
