#N canvas 400 113 450 400 10;
#X obj 6 7 bng 15 250 50 0 \$0/midisave empty save_midi_settings 17
7 0 10 -258113 -1 -1;
#X obj 93 308 textfile;
#X obj 93 247 list prepend add;
#X obj 93 268 list trim;
#X obj 265 141 t b b b;
#X msg 304 163 clear;
#X obj 27 162 t b b;
#X obj 27 241 until;
#X msg 27 142 bang;
#X obj 265 120 r \$0/midisave;
#X obj 6 27 bng 15 250 50 0 \$0/midiload empty load_midi_settings 17
7 0 10 -258113 -1 -1;
#X obj 83 113 r \$0/midiload;
#X obj 284 186 s pd-midi-gui/MIDISAVE;
#X obj 93 226 r pd-midi-gui/MIDIDATA;
#X obj 93 329 s pd-midi-gui/MIDILOAD;
#X obj 263 8 loadbang;
#X obj 265 232 symbol \$1;
#X text 148 4 args: filename;
#X msg 265 253 write \$1;
#X msg 54 203 read \$1 \, rewind;
#X obj 54 182 symbol \$1;
#X obj 263 96 s \$0/filename;
#X obj 316 210 r \$0/filename;
#X msg 330 9 bang;
#X obj 263 30 list append \$1;
#X obj 263 52 sel 0;
#X msg 263 74 symbol midisettings.txt;
#X obj 27 73 r \$0/filename;
#X obj 27 95 t b s;
#X connect 1 0 14 0;
#X connect 1 1 7 1;
#X connect 2 0 3 0;
#X connect 3 0 1 0;
#X connect 4 0 16 0;
#X connect 4 1 12 0;
#X connect 4 2 5 0;
#X connect 5 0 1 0;
#X connect 6 0 7 0;
#X connect 6 1 20 0;
#X connect 7 0 1 0;
#X connect 8 0 6 0;
#X connect 9 0 4 0;
#X connect 11 0 8 0;
#X connect 13 0 2 0;
#X connect 15 0 24 0;
#X connect 16 0 18 0;
#X connect 18 0 1 0;
#X connect 19 0 1 0;
#X connect 20 0 19 0;
#X connect 22 0 16 1;
#X connect 23 0 24 0;
#X connect 24 0 25 0;
#X connect 25 0 26 0;
#X connect 25 1 21 0;
#X connect 26 0 21 0;
#X connect 27 0 28 0;
#X connect 28 0 8 0;
#X connect 28 1 20 1;
#X coords 0 -1 1 1 140 50 2 0 0;
