#N canvas 812 340 319 147 10;
#X obj 33 5 tgl 15 0 \$0/learn \$1/pd-midi-gui/learn learn 17 7 0 10
-191407 -1 -1 0 1;
#X obj 6 5 tgl 15 0 \$0/value \$1/r empty 17 7 0 10 -258113 -1 -1 0
127;
#X text 95 4 args: name;
#X obj 8 101 s \$1/r;
#X obj 81 66 r \$0/value;
#X obj 93 101 ctlout;
#X obj 8 35 u_midi_learn \$1 button \$0;
#X connect 4 0 5 0;
#X connect 6 0 3 0;
#X connect 6 1 5 1;
#X connect 6 2 5 2;
#X coords 0 -1 1 1 85 25 2 0 0;
