#N canvas 712 134 565 484 10;
#X obj 70 20 midiin;
#X obj 151 129 sel 242;
#X obj 70 101 t a a;
#X obj 82 299 list;
#X obj 26 206 list length;
#X obj 26 228 >= 3;
#X obj 70 159 list prepend;
#X obj 176 159 t l;
#X obj 70 181 t a a a;
#X obj 120 206 list split 1;
#X obj 120 228 == 242;
#X obj 26 250 &&;
#X obj 26 272 sel 1;
#X text 218 200 <- when we have a message 2 bytes long that starts
with SPP code = 242 \, go., f 38;
#X obj 82 321 t a a;
#X obj 109 344 outlet raw;
#X obj 22 344 list split 1;
#X obj 56 370 unpack f f;
#X obj 56 396 * 127;
#X obj 56 423 +;
#X obj 56 445 outlet;
#X obj 103 274 list split 3;
#X obj 109 42 == 1;
#X obj 70 73 spigot;
#X connect 0 0 23 0;
#X connect 0 1 22 0;
#X connect 1 0 6 1;
#X connect 2 0 6 0;
#X connect 2 1 1 0;
#X connect 3 0 14 0;
#X connect 4 0 5 0;
#X connect 5 0 11 0;
#X connect 6 0 7 0;
#X connect 6 0 8 0;
#X connect 7 0 6 1;
#X connect 8 0 4 0;
#X connect 8 1 9 0;
#X connect 8 2 21 0;
#X connect 9 0 10 0;
#X connect 10 0 11 1;
#X connect 11 0 12 0;
#X connect 12 0 3 0;
#X connect 14 0 16 0;
#X connect 14 1 15 0;
#X connect 16 1 17 0;
#X connect 17 0 18 0;
#X connect 17 1 19 1;
#X connect 18 0 19 0;
#X connect 19 0 20 0;
#X connect 21 0 3 1;
#X connect 22 0 23 1;
#X connect 23 0 2 0;
