#N canvas 648 114 535 333 10;
#X obj 178 73 ctlin;
#X obj 177 256 spigot;
#X obj 191 197 ==;
#X obj 219 197 ==;
#X obj 191 226 &&;
#X obj 309 127 spigot;
#X obj 355 127 spigot;
#X obj 309 148 t b f;
#X obj 294 204 pack f f;
#X obj 273 226 list;
#X msg 372 199 0;
#X obj 15 79 unpack f f;
#X obj 15 38 r pd-midi-gui/MIDILOAD;
#X obj 372 219 s \$1/pd-midi-gui/learn;
#X obj 273 177 r pd-midi-gui/MIDISAVE;
#X obj 273 270 s pd-midi-gui/MIDIDATA;
#X obj 281 41 r MIDIBUS;
#X obj 281 85 unpack f f f;
#X obj 14 287 s \$1;
#X text 77 16 name type dollarzero;
#X obj 388 85 r \$3/learn;
#X obj 14 258 r \$3/value;
#X obj 273 248 list prepend \$1/\$2;
#X obj 15 58 route \$1/\$2;
#X obj 226 73 notein;
#X obj 281 63 route ctlin notein;
#X obj 294 301 outlet;
#X obj 345 302 outlet;
#X obj 177 301 outlet;
#X connect 0 0 1 0;
#X connect 0 1 2 0;
#X connect 0 1 5 0;
#X connect 0 2 3 0;
#X connect 0 2 6 0;
#X connect 1 0 28 0;
#X connect 2 0 4 0;
#X connect 3 0 4 1;
#X connect 4 0 1 1;
#X connect 5 0 7 0;
#X connect 6 0 3 1;
#X connect 6 0 8 1;
#X connect 6 0 27 0;
#X connect 7 0 10 0;
#X connect 7 1 2 1;
#X connect 7 1 8 0;
#X connect 7 1 26 0;
#X connect 8 0 9 1;
#X connect 9 0 22 0;
#X connect 10 0 13 0;
#X connect 11 0 2 1;
#X connect 11 0 8 0;
#X connect 11 0 26 0;
#X connect 11 1 3 1;
#X connect 11 1 8 1;
#X connect 11 1 27 0;
#X connect 12 0 23 0;
#X connect 14 0 9 0;
#X connect 16 0 25 0;
#X connect 17 0 1 0;
#X connect 17 1 5 0;
#X connect 17 1 2 0;
#X connect 17 2 6 0;
#X connect 17 2 3 0;
#X connect 20 0 6 1;
#X connect 20 0 5 1;
#X connect 21 0 18 0;
#X connect 22 0 15 0;
#X connect 23 0 11 0;
#X connect 24 0 1 0;
#X connect 24 1 2 0;
#X connect 24 1 5 0;
#X connect 24 2 6 0;
#X connect 24 2 3 0;
#X connect 25 0 17 0;
#X connect 25 1 17 0;
